<?xml version="1.0" encoding="utf-8"?>
<!-- Generator: Adobe Illustrator 24.0.1, SVG Export Plug-In . SVG Version: 6.00 Build 0)  -->
<svg version="1.1" id="Layer_1" xmlns="http://www.w3.org/2000/svg" xmlns:xlink="http://www.w3.org/1999/xlink" x="0px" y="0px"
	 viewBox="0 0 128 128" enable-background="new 0 0 128 128" xml:space="preserve">
<g>
	<defs>
		<circle id="SVGID_1_" cx="64" cy="64.03" r="59.72"/>
	</defs>
	<clipPath id="SVGID_2_">
		<use xlink:href="#SVGID_1_"  overflow="visible"/>
	</clipPath>
	<g clip-path="url(#SVGID_2_)">
		<path fill="#AF002A" d="M45.54,124.68c0,0,3.9-25.85,4.04-27.22s0.55-2.46-1.16-4.93C46.71,90.06,28.56,63.7,28,62.93
			c-0.56-0.77-0.1-1.8,0.41-2.67c0.51-0.87,13.85-20.46,14.33-21.07c0.48-0.62,1.37-2.53,3.66-1.61s20.37,8.79,21.04,9.18
			c0.67,0.39,1.05,0.74,0.88,2.29s-0.42,4.03-0.55,4.75c-0.13,0.72-0.31,1.69-2.41,2.18c-2.11,0.49-8.58,1.72-10.81,0.44
			c-2.23-1.28-4.6-4.06-4.96-4.29c-0.36-0.23-0.82-0.21-0.92,0.69c-0.1,0.9,0.44,1.75,1.08,2.49c0.64,0.74,1.16,2.7-0.72,3.26
			c-1.87,0.56-3.7,0.41-3,1.05c0.69,0.64,5.7,2.85,7.24,3.26c1.54,0.41,2.49,0.56,3.59,2.36c1.1,1.8,12.62,22.12,12.99,22.87
			s1.2,1.88-0.17,2.91s-2.29,1.83-2.43,2.17c-0.14,0.34-0.07,0.7,0.26,0.75c0.33,0.05,1.83-0.06,2.09-0.06s0.68-0.03,0.68,0.59
			c0,0.62-2.22,29.16-2.32,29.98c-0.1,0.82,0.31,1.21-1.44,1.21s-19.46-0.1-20.18-0.13C45.61,125.51,45.43,125.41,45.54,124.68z"/>
		<path fill="#AF002A" d="M70.44,125.66c0,0,12.28,0,12.66,0c0.38,0,0.68-0.06,0.72-0.95c0,0,0.46-25.45,0.46-25.63
			c0-0.18,0.05-0.46,0.46-0.8c0.41-0.33,10.27-9.94,10.48-28.84c0,0-0.07-0.75-0.96,0c-0.89,0.75-8.75,6.8-9.69,7.26
			c-0.65,0.31-2.02,0.48-3.05-0.68c-1.03-1.16-4.96-5.96-8.11-7.26c-3.15-1.3-5.65-2.43-7.57-3.12S60.02,65,59.78,65
			s-0.31,0.31-0.21,1.1c0.1,0.79,0.68,2.84,4.28,7.39c3.59,4.55,11.98,19.24,12.19,19.65s0.4,1.09-0.34,1.57s-1.26-0.51-1.51-0.69
			c-0.26-0.18-1.44-0.28-1.64,0.67s-2.42,29.23-2.46,29.81C70.06,125.09,69.97,125.72,70.44,125.66z"/>
		<path fill="#AF002A" d="M66.53,57.78c0.13-0.39,0.68-1.23-0.75-1.1s-3.46,0.27-6.85,1.47c-3.39,1.2-5.58-0.03-5.92-0.17
			s-1.34-0.23-1.27,0.69c0.07,0.92,5.2,2.63,6.23,2.97c1.03,0.34,3.01,0.98,3.7,1.2c0.92,0.29,1.49,0.27,2.19-0.55
			C64.4,61.67,66.14,58.97,66.53,57.78z"/>
		<path fill="#AF002A" d="M48.14,34.81c0,0,7.39-10.13,8.22-11.3s1.92-2.26,3.42-1.16s6.31,5,6.96,5.48
			c0.64,0.48,1.53,0.82,0.27,2.81s-5.17,8.3-6.13,9.69c-0.36,0.52-0.82,1.1-2.09,0.62s-10.27-4.38-10.65-4.59
			C47.77,36.14,47.37,35.86,48.14,34.81z"/>
		<path fill="#AF002A" d="M62.61,41.36c0,0,5.96-9.35,6.47-10.07c0.51-0.72,1.39-1.88,2.88-0.67c1.21,0.99,7.09,6.88,8.01,7.86
			c0.9,0.95,1.05,1.34-0.67,3.65c-1.91,2.56-8.37,10.89-8.86,11.55c-0.49,0.67-1.1,1.03-0.85-1.13c0.26-2.16,0.21-4.54-0.05-5.14
			c-0.27-0.61-0.45-1.15-3.27-2.36c-2.69-1.16-3.4-1.97-3.73-2.28C62.04,42.31,62.23,41.96,62.61,41.36z"/>
		<path fill="#AF002A" d="M66.36,62.26c0,0,14.28-19.37,14.86-20.11s1.3-1.35,2.09-0.64c0.79,0.72,7.29,7.02,7.74,7.53
			c0.75,0.86,0.86,1.54-0.96,3.49c-1.97,2.11-12.7,14.28-13.35,14.93c-0.65,0.65-1.47,1.03-3.39,0.21
			c-1.92-0.82-6.33-2.98-6.98-3.32C65.71,64.01,65.81,63,66.36,62.26z"/>
		<path fill="#AF002A" d="M78.94,68.55c0,0,12.51-13.7,13.17-14.35c0.65-0.65,1.14-1.48,2.01-0.58c0.87,0.9,5.33,6.62,5.72,7.1
			c0.39,0.48,0.78,1.14-0.12,1.92c-0.9,0.78-14.67,12.25-15.06,12.51c-0.75,0.51-1.38,0.56-2.16-0.19s-0.27-1.09-1.67-2.28
			C79.48,71.54,77.34,70.06,78.94,68.55z"/>
	</g>
</g>
<g>
	<path fill="#AF002A" d="M64,124.75c-33.48,0-60.72-27.24-60.72-60.72C3.28,30.55,30.52,3.31,64,3.31s60.72,27.24,60.72,60.72
		C124.72,97.51,97.48,124.75,64,124.75z M64,5.31c-32.38,0-58.72,26.34-58.72,58.72S31.62,122.75,64,122.75
		c32.38,0,58.72-26.34,58.72-58.72S96.38,5.31,64,5.31z"/>
</g>
</svg>
