<?xml version="1.0" encoding="utf-8"?>
<!-- Generator: Adobe Illustrator 24.0.1, SVG Export Plug-In . SVG Version: 6.00 Build 0)  -->
<svg version="1.1" baseProfile="tiny" id="Layer_1" xmlns="http://www.w3.org/2000/svg" xmlns:xlink="http://www.w3.org/1999/xlink"
	 x="0px" y="0px" viewBox="0 0 128 128" xml:space="preserve">
<circle fill="#AF002A" cx="66.66" cy="65.28" r="41.94"/>
<path fill="#AF002A" stroke="#93002A" stroke-width="0.25" stroke-miterlimit="10" d="M53.86,30.17c2.16-3.66,4.1-6.83,2.09-21.35
	c0,0-7.99-0.91-4.92-5.11c2.18-2.98,8.19-3.62,11.05-1.6c2.29,1.62,1.3,4.91-3.77,6.5c0,0,0.88,11.77,5.69,19.28
	c1.13,1.76,1.53,2.26-1.33,3.05C59.67,31.78,52.8,31.97,53.86,30.17z"/>
<path fill="#AF002A" stroke="#93002A" stroke-width="0.25" stroke-miterlimit="10" d="M84.85,37.63c4.2-0.62,7.89-1.09,17.94-11.76
	c0,0-4.3-6.8,0.9-7.04c3.69-0.17,7.96,4.11,8.18,7.6c0.17,2.8-3.01,4.09-7.43,1.14c0,0-8.62,8.06-11.45,16.52
	c-0.66,1.98-0.8,2.61-3.21,0.88C87.25,43.16,82.79,37.94,84.85,37.63z"/>
<path fill="#AF002A" stroke="#93002A" stroke-width="0.25" stroke-miterlimit="10" d="M103.52,73.34
	c2.18,3.65,4.03,6.88,17.74,12.06c0,0,4.63-6.57,6.84-1.86c1.57,3.35-0.75,8.93-3.89,10.47c-2.52,1.23-4.93-1.22-3.9-6.42
	c0,0-10.75-4.87-19.65-4.25c-2.08,0.15-2.71,0.26-2.04-2.63C99.32,77.67,102.45,71.55,103.52,73.34z"/>
<path fill="#AF002A" stroke="#93002A" stroke-width="0.25" stroke-miterlimit="10" d="M84.63,97.73c-1.43,4-2.75,7.48,1.97,21.36
	c0,0,8.02-0.6,5.79,4.1c-1.58,3.34-7.36,5.1-10.55,3.65c-2.55-1.16-2.2-4.58,2.48-7.09c0,0-3.08-11.39-9.21-17.87
	c-1.44-1.52-1.93-1.93,0.73-3.25C78.62,97.25,85.33,95.76,84.63,97.73z"/>
<path fill="#AF002A" stroke="#93002A" stroke-width="0.25" stroke-miterlimit="10" d="M35.64,87.19c-4.17-0.81-7.81-1.6-20.82,5.14
	c0,0,1.8,7.84-3.19,6.34c-3.54-1.07-6.15-6.52-5.19-9.89c0.76-2.7,4.2-2.86,7.38,1.39c0,0,10.8-4.75,16.29-11.78
	c1.28-1.65,1.62-2.19,3.32,0.23C35.22,81.18,37.69,87.59,35.64,87.19z"/>
<path fill="#AF002A" stroke="#93002A" stroke-width="0.25" stroke-miterlimit="10" d="M30.43,60.76c-2.81-3.18-5.22-6.02-19.65-8.59
	c0,0-3.34,7.31-6.38,3.09c-2.16-3-0.91-8.91,1.9-11c2.25-1.68,5.07,0.29,5.01,5.6c0,0,11.46,2.81,20.09,0.56
	c2.02-0.53,2.62-0.75,2.49,2.21C33.75,55.73,31.81,62.32,30.43,60.76z"/>
<path fill="#AF002A" stroke="#93002A" stroke-width="0.25" stroke-miterlimit="10" d="M31.75,43.63
	c-0.88-3.12-1.61-5.86-10.68-12.39c0,0-4.71,3.93-5.41,0.02c-0.5-2.78,2.31-6.43,4.94-6.94c2.1-0.41,3.39,1.87,1.6,5.5
	c0,0,6.95,5.71,13.63,7.02c1.56,0.31,2.05,0.35,0.99,2.34C35.69,41.27,32.18,45.16,31.75,43.63z"/>
<path fill="#AF002A" stroke="#93002A" stroke-width="0.25" stroke-miterlimit="10" d="M73.72,25.08c2.49-2.07,4.7-3.85,6.99-14.79
	c0,0-5.5-2.71-2.21-4.94c2.34-1.58,6.81-0.49,8.35,1.69c1.23,1.75-0.33,3.86-4.38,3.7c0,0-2.4,8.67-0.88,15.31
	c0.36,1.55,0.52,2.02-1.74,1.85C77.48,27.73,72.49,26.1,73.72,25.08z"/>
<path fill="#AF002A" stroke="#93002A" stroke-width="0.25" stroke-miterlimit="10" d="M103.68,47.01c3.11,0.93,5.81,1.79,16.19-2.37
	c0,0-0.79-6.08,2.89-4.58c2.61,1.07,4.18,5.4,3.21,7.89c-0.78,1.99-3.4,1.86-5.5-1.6c0,0-8.55,2.8-13.23,7.74
	c-1.1,1.16-1.39,1.55-2.5-0.42C103.55,51.6,102.15,46.55,103.68,47.01z"/>
<path fill="#AF002A" stroke="#93002A" stroke-width="0.25" stroke-miterlimit="10" d="M46.15,100.18c-3.08,1-5.8,1.83-11.98,11.14
	c0,0,4.1,4.56,0.22,5.41c-2.76,0.6-6.51-2.07-7.12-4.67c-0.49-2.08,1.74-3.46,5.44-1.81c0,0,5.45-7.16,6.5-13.89
	c0.25-1.57,0.27-2.06,2.3-1.07C43.65,96.33,47.67,99.69,46.15,100.18z"/>
<path fill="#AF002A" stroke="#93002A" stroke-width="0.25" stroke-miterlimit="10" d="M62.63,105.96c-1.4,1.5-2.64,2.79-3.2,9.85
	c0,0,3.67,1.26,1.79,2.92c-1.34,1.18-4.24,0.86-5.38-0.39c-0.91-1-0.1-2.45,2.45-2.67c0,0,0.81-5.64-0.68-9.68
	c-0.35-0.95-0.49-1.22,0.94-1.3C60.05,104.6,63.31,105.22,62.63,105.96z"/>
<path fill="#AF002A" stroke="#93002A" stroke-width="0.25" stroke-miterlimit="10" d="M25.65,71.16c-1.75-1.07-3.26-2.03-10.29-1.17
	c0,0-0.5,3.85-2.5,2.33c-1.42-1.08-1.69-3.98-0.69-5.34c0.8-1.09,2.38-0.59,3.11,1.87c0,0,5.69-0.33,9.35-2.6
	c0.86-0.53,1.1-0.72,1.46,0.66C26.47,68.37,26.51,71.69,25.65,71.16z"/>
<path fill="#AF002A" stroke="#93002A" stroke-width="0.25" stroke-miterlimit="10" d="M42.56,32.25c0.06-2.05,0.14-3.84-4.1-9.51
	c0,0-3.59,1.48-3.27-1.01c0.23-1.77,2.61-3.44,4.29-3.26c1.35,0.15,1.69,1.77-0.07,3.63c0,0,3.12,4.77,6.9,6.82
	c0.89,0.48,1.17,0.6,0.15,1.6C45.39,31.57,42.54,33.26,42.56,32.25z"/>
<path fill="#AF002A" stroke="#93002A" stroke-width="0.25" stroke-miterlimit="10" d="M97.18,92.83c0.28,2.03,0.5,3.81,5.62,8.7
	c0,0,3.29-2.05,3.39,0.46c0.07,1.78-2.01,3.83-3.7,3.92c-1.35,0.07-1.96-1.47-0.53-3.59c0,0-3.86-4.19-7.93-5.58
	c-0.95-0.33-1.26-0.4-0.41-1.55C94.5,93.97,97.04,91.83,97.18,92.83z"/>
<path fill="#AF002A" stroke="#93002A" stroke-width="0.25" stroke-miterlimit="10" d="M107.75,63.82c1.6,1.28,2.98,2.43,10.05,2.47
	c0,0,0.99-3.75,2.78-1.99c1.27,1.25,1.17,4.16,0,5.39c-0.93,0.98-2.44,0.28-2.84-2.25c0,0-5.68-0.39-9.6,1.38
	c-0.92,0.42-1.18,0.57-1.37-0.84C106.58,66.48,106.96,63.19,107.75,63.82z"/>
<g>
	<g>
		<path fill="#116182" d="M78.27,49.34h-1.51v-5.13c0-1.17-0.95-2.13-2.13-2.13H58.63c-1.17,0-2.13,0.95-2.13,2.13v5.13H55v-5.13
			c0-2,1.63-3.29,3.63-3.29h16.01c2,0,3.63,1.28,3.63,3.29V49.34z"/>
	</g>
	<path fill="#FFFFFF" d="M88.85,49.34h-13.1v0.58c0,0.78-0.63,1.42-1.42,1.42h-15.4c-0.78,0-1.42-0.63-1.42-1.42v-0.58H44.47
		c-3.49,0-6.31,2.83-6.31,6.31v26.2c0,3.49,2.83,6.31,6.31,6.31h44.38c3.49,0,6.31-2.83,6.31-6.31v-26.2
		C95.16,52.16,92.34,49.34,88.85,49.34z"/>
	<circle fill="#AF002A" cx="66.61" cy="66.57" r="10.66"/>
	<g>
		<path fill="#FFFFFF" d="M65.03,72.86v-4.68h-4.71v-3.23h4.71v-4.68h3.14v4.68h4.73v3.23h-4.73v4.68H65.03z"/>
	</g>
	<text transform="matrix(1 0 0 1 47.8408 85.2891)" fill="#116182" font-family="'Helvetica'" font-size="8.1593px">COVID-19</text>
</g>
</svg>
