<?xml version="1.0" encoding="utf-8"?>
<!-- Generator: Adobe Illustrator 24.0.1, SVG Export Plug-In . SVG Version: 6.00 Build 0)  -->
<svg version="1.1" baseProfile="tiny" id="Layer_1" xmlns="http://www.w3.org/2000/svg" xmlns:xlink="http://www.w3.org/1999/xlink"
	 x="0px" y="0px" viewBox="0 0 128 128" xml:space="preserve">
<path fill="none" stroke="#000000" stroke-miterlimit="10" d="M59.58,25.95"/>
<path fill="#AF002A" d="M63.91,25.72c0,0,0-0.01-0.01-0.01C46.47-10.67,0.92,0.04,0.92,35.81c0,35.78,62.99,87.15,62.99,87.15
	s62.99-51.87,62.99-87.15c0-35.77-45.55-46.48-62.99-10.1L63.91,25.72z"/>
<path fill="#FFFFFF" d="M103.43,67c-0.82-4.29-4.87-3.77-7.15-2.38c-1.41,0.86-18.7,12.92-19.63,13.49
	c-0.94,0.57-1.77,1.01-2.18,0.59s-0.39-1.23,0.09-1.6c0.47-0.37,29.29-20.93,32.1-22.84c2.81-1.91,4.25-5.56,2.12-8.29
	c-2.66-3.41-6.86-1.22-7.84-0.55c-0.99,0.66-26.04,18.85-27.74,19.01c-0.64,0.06-0.39-1.06-0.22-1.25
	c0.55-0.59,27.33-21.01,30.68-23.61c3.35-2.6,3.19-5.85,1.1-8.11c-2.79-3.02-6.49-1.34-7.61-0.49
	c-1.12,0.85-27.46,20.71-27.46,20.71c0.91,1.68,2.36,11.55,2.52,12.31s0.27,0.79,0.44,1c2.45,3.03-0.4,4.78-2.01,4.77
	c-4.38-0.01-5.35-5.82-5.79-7.64c-0.43-1.82-1.35-1.06-2.67,0.53c-1.32,1.59-1.49,4.71-1.49,4.71c-2.23,13.54-2.4,16.23-4.52,16.57
	c-2.07,0.33-3.82-0.95-3.55-3.76c0.27-2.81,1.33-8.45,1.76-12.18c0.14-1.2-1.14-0.96-1.39,0.25c-3.02,14.16-2.94,16.4-6.06,16.3
	c-3.12-0.1-3.35-2.65-3.08-3.62c0.27-0.97,3.43-12.7,3.67-14.06c0.14-0.82-0.59-0.76-0.85,0.06c-3.5,11.32-3.82,13.96-6.65,13.59
	c-2.83-0.36-2.7-2.92-2.33-4.41c0.61-2.47,2.39-7.62,4.34-13.83c0.34-1.08-0.55-0.98-0.83-0.29c-3.04,7.59-3.79,9.32-5.76,9.26
	c-3.39-0.11-3.13-3.19-2.54-4.64c0.33-0.8,0.63-1.58,8.81-20.9c8.18-19.33,1.17-20.87-1.51-21.04c-2.4-0.15-4.7,1.08-6.45,5.7
	c-1.75,4.62-3.48,8.91-8.52,16.96s-9.23,21.8-9.39,22.32c-0.06,0.21-0.46,0.69-0.91,1.18c7.97,11.71,18.17,22.99,27.21,32.06
	c3.16,0.43,6.6,0.22,10.34-0.83C79.84,94.37,104.43,72.24,103.43,67z"/>
</svg>
