<?xml version="1.0" encoding="utf-8"?>
<!-- Generator: Adobe Illustrator 24.0.1, SVG Export Plug-In . SVG Version: 6.00 Build 0)  -->
<svg version="1.1" id="Layer_1" xmlns="http://www.w3.org/2000/svg" xmlns:xlink="http://www.w3.org/1999/xlink" x="0px" y="0px"
	 viewBox="0 0 128 128" enable-background="new 0 0 128 128" xml:space="preserve">
<path fill="#1A1A1A" stroke="#3A3A3A" stroke-width="0.25" stroke-miterlimit="10" d="M57.92,59.8c-2.1-4.12-7.74-19.58-7.92-29.01
	c-0.07-3.63,0.77-5.65,4.97-6.88c4.12-1.2,8.53-0.58,9.84,5.13c3.76,16.32,7.49,26.72,7.49,26.72s7.43-0.07,9.15-0.07
	c1.71,0,6.39-0.16,9.05,4.12c2.92,4.68,12.76,22.22,12.76,22.22s2.61-0.72,3.43-0.93s4.26-1.15,5.76,2.37
	c1.41,3.32-1.03,5.76-3.16,6.41c-2.13,0.65-5.8,1.65-6.86,1.89s-3.7,0.72-5.59-2.44S86.08,70.64,85.39,69.44
	c-0.69-1.2-3.04-4.6-8.23-4.08c-5.2,0.51-6.38,0.93-8.8,1.29C65.95,67.01,61.67,67.16,57.92,59.8z"/>
<path fill="#FFFFFF" d="M53.96,26.19c0,0,1.58-2.74,4.86-1.27c0,0-0.14,1.75-0.85,3.09l7.46,20.43l-1.34,4.14l-3.69-3.12L56.3,28.52
	C56.3,28.52,54.92,27.65,53.96,26.19z"/>
<path fill="#1A1A1A" d="M50.15,30.53l1.52-0.6c1.3,6.74,3.44,11.47,4.97,14.24c2.52,4.58,5.11,4.68,7.99,4.72
	c2.54,0.03,7.43-0.19,8.61-0.27c3.01-0.19,6.91-0.77,7.13,1.65c0.23,2.58-1.98,2.29-4.64,2.57c-1.96,0.21-6.99,0.53-9.51,0.68
	c-0.61,0.04-9.25,0.33-11.38-2.9c-1.05-1.59-1.61-3.18-2.27-5.62C50,35.42,50.15,30.53,50.15,30.53z"/>
<polyline fill="none" stroke="#1A1A1A" stroke-linecap="round" stroke-linejoin="round" stroke-miterlimit="10" points="
	36.32,25.03 44.55,25.03 51.24,49.8 "/>
<circle fill="#1A1A1A" cx="52.96" cy="14.04" r="8.36"/>
<path fill="#1A1A1A" d="M44.13,95.65c0,0-15.67,16.67-16.92,17.9c-2.33,2.29-4.52,6.87-1.02,10.36c4.09,4.08,8.71,0.83,10.71-1.84
	c1.31-1.75,14.85-20.11,14.85-20.11L44.13,95.65z"/>
<path fill="none" stroke="#3A3A3A" stroke-width="0.25" stroke-miterlimit="10" d="M53.96,38.25c0.92,2.51,1.88,4.47,2.67,5.91
	c2.52,4.58,5.11,4.72,7.99,4.72c6.13-0.01,8.67-0.33,11.73-0.46c2.99-0.13,3.79,0.27,4.01,1.84c0.36,2.57-1.98,2.29-4.64,2.57
	c-1.96,0.21-6.99,0.68-9.51,0.68c-5.04,0-9.89,0.02-11.84-3.47c-0.82-1.47-1.15-2.61-1.81-5.06c-2.57-9.57-2.41-14.46-2.41-14.46"/>
<path fill="none" stroke="#1A1A1A" stroke-width="7" stroke-linecap="round" stroke-linejoin="round" stroke-miterlimit="10" d="
	M91.55,93.68c-5.39,6.65-13.62,10.91-22.85,10.91c-16.23,0-29.39-13.16-29.39-29.39c0-8.12,3.29-15.46,8.61-20.78"/>
</svg>
