<?xml version="1.0" encoding="utf-8"?>
<!-- Generator: Adobe Illustrator 24.0.1, SVG Export Plug-In . SVG Version: 6.00 Build 0)  -->
<svg version="1.1" id="Layer_1" xmlns="http://www.w3.org/2000/svg" xmlns:xlink="http://www.w3.org/1999/xlink" x="0px" y="0px"
	 viewBox="0 0 128 128" enable-background="new 0 0 128 128" xml:space="preserve">
<circle fill="#FFFAD2" cx="22.21" cy="60.74" r="0.29"/>
<circle fill="#FFFAD2" cx="19.35" cy="59.92" r="0.29"/>
<circle fill="#FFFAD2" cx="19.35" cy="64.83" r="0.29"/>
<g>
	<path fill="#D11C50" d="M12.24,31.5c0,0,12,30.95,46.41,31.4l-4.51,7.22c0,0-27.75,5.64-53.82-18.5c0,0,4.06,0.28,4.12-1.92
		c0.06-2.2-1.3-4.74,1.69-6.15c2.99-1.41,1.86-3.89,1.3-5.64s1.3-3.05,3.33-3.33S12.24,31.5,12.24,31.5z"/>
	
		<path fill="none" stroke="#AF002A" stroke-width="0.25" stroke-linecap="round" stroke-linejoin="round" stroke-miterlimit="10" d="
		M12.24,31.5c0,0,12,30.95,46.41,31.4l-4.51,7.22c0,0-27.75,5.64-53.82-18.5c0,0,4.06,0.28,4.12-1.92c0.06-2.2-1.3-4.74,1.69-6.15
		c2.99-1.41,1.86-3.89,1.3-5.64s1.3-3.05,3.33-3.33S12.24,31.5,12.24,31.5z"/>
	<path fill="none" stroke="#AF002A" stroke-width="0.25" stroke-miterlimit="10" d="M8.08,41.24c0,0,21.49,28.33,51.22,23.28"/>
	<path fill="none" stroke="#AF002A" stroke-width="0.25" stroke-miterlimit="10" d="M4.18,46.55c0,0,18.7,24.19,51.98,21.06"/>
	<circle fill="#FFFAD2" cx="14.46" cy="45.08" r="0.35"/>
	<circle fill="#FFFAD2" cx="21.64" cy="52.64" r="0.35"/>
	<circle fill="#FFFAD2" cx="30.71" cy="55.5" r="0.35"/>
	<circle fill="#FFFAD2" cx="23.75" cy="57.56" r="0.35"/>
	<circle fill="#FFFAD2" cx="28.19" cy="62.12" r="0.35"/>
	<circle fill="#FFFAD2" cx="39.69" cy="64.57" r="0.35"/>
	<circle fill="#FFFAD2" cx="43.1" cy="61.43" r="0.35"/>
	<circle fill="#FFFAD2" cx="35.35" cy="60.99" r="0.35"/>
	<circle fill="#FFFAD2" cx="30.52" cy="65.47" r="0.35"/>
	<circle fill="#FFFAD2" cx="45.53" cy="66.71" r="0.35"/>
	<circle fill="#FFFAD2" cx="54.55" cy="66.47" r="0.35"/>
	<circle fill="#FFFAD2" cx="52.84" cy="68.86" r="0.35"/>
	<circle fill="#FFFAD2" cx="48.23" cy="69.94" r="0.35"/>
	<circle fill="#FFFAD2" cx="56.69" cy="63.58" r="0.35"/>
	<circle fill="#FFFAD2" cx="73.22" cy="67.53" r="0.35"/>
	<circle fill="#FFFAD2" cx="51.82" cy="65.85" r="0.35"/>
	<circle fill="#FFFAD2" cx="41.94" cy="68.51" r="0.35"/>
	<circle fill="#FFFAD2" cx="35.35" cy="68.86" r="0.35"/>
	<circle fill="#FFFAD2" cx="49.2" cy="63.88" r="0.35"/>
	<circle fill="#FFFAD2" cx="21.35" cy="63.58" r="0.35"/>
	<circle fill="#FFFAD2" cx="16.38" cy="54.81" r="0.35"/>
	<circle fill="#FFFAD2" cx="15.69" cy="58.47" r="0.35"/>
	<g>
		<path fill="#FFF6D3" d="M71.96,69.96c0,0,0.45,6.49,0.45,16.3s2.37,17.83,9.36,22.56c0,0,0.9-5.55,9.03-2.1
			c0,0-0.68-4.67,3.5-4.11c4.17,0.56,2.48-0.68,2.82-2.26c0.34-1.58,2.03-2.14,5.08-2.14c3.05,0,1.81-1.02-0.9-1.02
			s-11.17-2.59-15.68-13.65C81.1,72.5,78.39,69,78.39,69L71.96,69.96z"/>
		
			<path fill="none" stroke="#B88957" stroke-width="0.25" stroke-linecap="round" stroke-linejoin="round" stroke-miterlimit="10" d="
			M71.96,69.96c0,0,0.45,6.49,0.45,16.3s2.37,17.83,9.36,22.56c0,0,0.9-5.55,9.03-2.1c0,0-0.68-4.67,3.5-4.11
			c4.17,0.56,2.48-0.68,2.82-2.26c0.34-1.58,2.03-2.14,5.08-2.14c3.05,0,1.81-1.02-0.9-1.02s-11.17-2.59-15.68-13.65
			C81.1,72.5,78.39,69,78.39,69L71.96,69.96z"/>
		<circle fill="#B88957" cx="76.87" cy="87.2" r="0.35"/>
		<circle fill="#B88957" cx="86.1" cy="99.69" r="0.35"/>
		<circle fill="#B88957" cx="77.56" cy="100.11" r="0.35"/>
		<circle fill="#B88957" cx="79.48" cy="77.88" r="0.35"/>
		<circle fill="#B88957" cx="81.7" cy="87.89" r="0.35"/>
		<circle fill="#B88957" cx="91.11" cy="93.48" r="0.35"/>
		<circle fill="#B88957" cx="79.48" cy="72.57" r="0.35"/>
		<circle fill="#B88957" cx="73.65" cy="73.7" r="0.35"/>
		
			<path fill="none" stroke="#B88957" stroke-width="0.25" stroke-linecap="round" stroke-linejoin="round" stroke-miterlimit="10" d="
			M76.87,70.51c0,0,2.87,4.35,5.02,11.35c2.14,7,5.85,15.88,15.22,19.51"/>
		
			<path fill="none" stroke="#B88957" stroke-width="0.25" stroke-linecap="round" stroke-linejoin="round" stroke-miterlimit="10" d="
			M74.33,69.94c0,0,1.81,1.77,2.54,10.11s3.83,20.79,12.88,25.78"/>
		<path fill="#FEDB03" d="M79.65,107.16c0.66,0.59,1.37,1.15,2.13,1.67c0,0,0.9-5.55,9.03-2.1c0,0-0.68-4.67,3.5-4.11
			c4.17,0.56,2.48-0.68,2.82-2.26c0.34-1.58,2.03-2.14,5.08-2.14c3.05,0,1.81-1.02-0.9-1.02c-0.6,0-1.5-0.13-2.57-0.45
			c-0.93-0.28-4.54-0.07-4.33,2.54c0.09,1.19-0.68,1.28-1.73,1.34c-3.02,0.16-5.2,0.38-5.25,2.33c-0.04,1.65-1.52,0.97-2.37,0.86
			C79.75,103.18,79.65,107.16,79.65,107.16z"/>
	</g>
	<g>
		<path fill="#FFF6D3" d="M113.59,31.77c0,0,8.35,22.11-40.05,31.82l-3.16,6.32c0,0,31.36,4.96,55.4-10.38
			c0,0,5.19-12.41-1.58-10.15c0,0,2.59-8.24-2.03-8.12C122.17,41.24,121.15,26.8,113.59,31.77z"/>
		
			<path fill="none" stroke="#B88957" stroke-width="0.25" stroke-linecap="round" stroke-linejoin="round" stroke-miterlimit="10" d="
			M113.59,31.77c0,0,8.35,22.11-40.05,31.82l-3.16,6.32c0,0,31.36,4.96,55.4-10.38c0,0,5.19-12.41-1.58-10.15
			c0,0,2.59-8.24-2.03-8.12C122.17,41.24,121.15,26.8,113.59,31.77z"/>
		<path fill="none" stroke="#B88957" stroke-width="0.25" stroke-miterlimit="10" d="M122.17,41.24c0,0-5.19,23.35-48.51,24.14"/>
		<path fill="none" stroke="#B88957" stroke-width="0.25" stroke-miterlimit="10" d="M124.2,49.37c0,0-8.31,19.63-51.33,18.16"/>
		<circle fill="#B88957" cx="81.7" cy="63.07" r="0.35"/>
		<circle fill="#B88957" cx="120.17" cy="51.1" r="0.35"/>
		<circle fill="#B88957" cx="75.47" cy="68.78" r="0.35"/>
		<circle fill="#B88957" cx="104.14" cy="54.37" r="0.35"/>
		<circle fill="#B88957" cx="107.46" cy="60.52" r="0.35"/>
		<circle fill="#B88957" cx="118.44" cy="40.23" r="0.35"/>
		<circle fill="#B88957" cx="90.77" cy="65.67" r="0.35"/>
		<circle fill="#B88957" cx="103.79" cy="67.06" r="0.35"/>
		<circle fill="#B88957" cx="124.54" cy="58.49" r="0.35"/>
	</g>
	<g>
		<path fill="#D11C50" d="M63.1,67.64l5.42-6.43c0,0,6.8-0.38,5.69,5.32C72.98,72.83,63.73,71.31,63.1,67.64z"/>
		
			<path fill="none" stroke="#AF002A" stroke-width="0.25" stroke-linecap="round" stroke-linejoin="round" stroke-miterlimit="10" d="
			M63.1,67.64l5.42-6.43c0,0,6.8-0.38,5.69,5.32C72.98,72.83,63.73,71.31,63.1,67.64z"/>
		<circle fill="#FFFAD2" cx="72.65" cy="65.06" r="0.35"/>
		<circle fill="#FFFAD2" cx="67.01" cy="69" r="0.35"/>
		<circle fill="#FFFAD2" cx="69.55" cy="62.6" r="0.35"/>
		<circle fill="#FFFAD2" cx="69.89" cy="66.36" r="0.35"/>
		<circle fill="#FFFAD2" cx="69.4" cy="69.69" r="0.35"/>
		
			<path fill="none" stroke="#AF002A" stroke-width="0.25" stroke-linecap="round" stroke-linejoin="round" stroke-miterlimit="10" d="
			M69.94,61.28c0,0,2.22,4.6-5.8,8.06"/>
		
			<path fill="none" stroke="#AF002A" stroke-width="0.25" stroke-linecap="round" stroke-linejoin="round" stroke-miterlimit="10" d="
			M71.96,61.81c0,0,1.65,4.46-5.58,8.7"/>
		
			<path fill="none" stroke="#AF002A" stroke-width="0.25" stroke-linecap="round" stroke-linejoin="round" stroke-miterlimit="10" d="
			M73.41,62.81c0,0,0.92,4.38-3.88,7.96"/>
	</g>
	<g>
		<path fill="#D11C50" d="M57.52,64.94c0,0-4.53,2.56-7.51,12.13c-3.21,10.32-6.03,17.54-13.71,19.69c0,0,5.3,0.9,5.3,3.05
			s-1.02,3.46,0.64,3.54s3.31-0.15,3.46,1.88s1.58,1.5,2.18,1.28s9.33-8.95,13.01-2.93c0,0,3.21-3.42,2.77-18.77
			c-0.4-14.1-1.18-16.36,0-17.71C63.68,67.08,63.84,62.12,57.52,64.94z"/>
		
			<path fill="none" stroke="#AF002A" stroke-width="0.25" stroke-linecap="round" stroke-linejoin="round" stroke-miterlimit="10" d="
			M59.75,64.07c0,0-4.04,3.39-5.2,14.86c-0.75,7.45-3.08,17.32-9.36,21.92"/>
		
			<path fill="none" stroke="#AF002A" stroke-width="0.25" stroke-linecap="round" stroke-linejoin="round" stroke-miterlimit="10" d="
			M63.1,65.14c0,0-3.6,1.22-3.35,9.38c0.4,12.94-0.95,19.42-3.41,25.16"/>
		<path fill="#FFF6D3" d="M40.24,94.97c-1.15,0.77-2.45,1.37-3.93,1.79c0,0,5.3,0.9,5.3,3.05s-1.02,3.46,0.64,3.54
			s3.31-0.15,3.46,1.88s1.58,1.5,2.18,1.28s9.33-8.95,13.01-2.93c0,0,0.8-0.85,1.55-3.63c0.21-0.78-6.18-5.25-8.74,2.19
			c-0.12,0.36-0.47,0.56-0.55,0.6c-0.6,0.33-1.42,0.86-1.42,0.86c-1.69-3.1-3.33-2.65-4.74-2.74c-1.29-0.09-1.58,0-1.36-1.8
			C46.08,95.26,40.24,94.97,40.24,94.97z"/>
		
			<path fill="none" stroke="#AF002A" stroke-width="0.25" stroke-linecap="round" stroke-linejoin="round" stroke-miterlimit="10" d="
			M57.52,64.94c0,0-4.53,2.56-7.51,12.13c-3.21,10.32-6.03,17.54-13.71,19.69c0,0,5.3,0.9,5.3,3.05s-1.02,3.46,0.64,3.54
			s3.31-0.15,3.46,1.88s1.58,1.5,2.18,1.28s9.33-8.95,13.01-2.93c0,0,3.21-3.42,2.77-18.77c-0.4-14.1-1.18-16.36,0-17.71
			C63.68,67.08,63.84,62.12,57.52,64.94z"/>
		<circle fill="#FFFAD2" cx="62.48" cy="66.82" r="0.35"/>
		<circle fill="#FFFAD2" cx="60.76" cy="65.47" r="0.35"/>
		<circle fill="#FFFAD2" cx="62.48" cy="71.17" r="0.35"/>
		<circle fill="#FFFAD2" cx="57.56" cy="66.02" r="0.35"/>
		<circle fill="#FFFAD2" cx="54.55" cy="71.04" r="0.35"/>
		<circle fill="#FFFAD2" cx="53.18" cy="78.96" r="0.35"/>
		<circle fill="#FFFAD2" cx="50.69" cy="88.91" r="0.35"/>
		<circle fill="#FFFAD2" cx="50.01" cy="98.78" r="0.35"/>
		<circle fill="#FFFAD2" cx="46.96" cy="96.66" r="0.35"/>
		<g>
			<circle fill="#FCB400" cx="39.29" cy="96.31" r="0.21"/>
			<circle fill="#FCB400" cx="41.31" cy="97.21" r="0.21"/>
			<circle fill="#FCB400" cx="43.18" cy="100.25" r="0.21"/>
			<circle fill="#FCB400" cx="48.6" cy="105.16" r="0.21"/>
			<circle fill="#FCB400" cx="48.18" cy="104.18" r="0.21"/>
			<circle fill="#FCB400" cx="56.84" cy="100.04" r="0.21"/>
			<circle fill="#FCB400" cx="61.18" cy="101.3" r="0.21"/>
			<circle fill="#FCB400" cx="60.31" cy="100.46" r="0.21"/>
			<circle fill="#FCB400" cx="59.2" cy="100.11" r="0.21"/>
			<circle fill="#FCB400" cx="55.59" cy="100.46" r="0.21"/>
			<circle fill="#FCB400" cx="58.09" cy="99.9" r="0.21"/>
			<circle fill="#FCB400" cx="47.4" cy="103.29" r="0.21"/>
			<circle fill="#FCB400" cx="45.19" cy="102.4" r="0.21"/>
			<circle fill="#FCB400" cx="43.98" cy="102.19" r="0.21"/>
			<circle fill="#FCB400" cx="40.24" cy="96.66" r="0.21"/>
			<circle fill="#FCB400" cx="42.97" cy="99.13" r="0.21"/>
			<circle fill="#FCB400" cx="43.18" cy="101.37" r="0.21"/>
			<circle fill="#FCB400" cx="46.41" cy="102.61" r="0.21"/>
			<circle fill="#FCB400" cx="42.33" cy="98.07" r="0.21"/>
		</g>
		<circle fill="#FFFAD2" cx="58.65" cy="96.31" r="0.35"/>
		<circle fill="#FFFAD2" cx="55.24" cy="96.31" r="0.35"/>
		<circle fill="#FFFAD2" cx="62.46" cy="92.37" r="0.35"/>
		<circle fill="#FFFAD2" cx="45.88" cy="91.34" r="0.35"/>
		<circle fill="#FFFAD2" cx="49.2" cy="82.76" r="0.35"/>
		<circle fill="#FFFAD2" cx="57.22" cy="75.05" r="0.35"/>
		<circle fill="#FFFAD2" cx="57.56" cy="85.18" r="0.35"/>
		<circle fill="#FFFAD2" cx="53.53" cy="91.68" r="0.35"/>
		<circle fill="#FFFAD2" cx="62.48" cy="82.41" r="0.35"/>
		<circle fill="#FFFAD2" cx="60.76" cy="87.54" r="0.35"/>
		<circle fill="#FFFAD2" cx="61.11" cy="75.74" r="0.35"/>
		<circle fill="#FFFAD2" cx="58.7" cy="69.2" r="0.35"/>
	</g>
	<g>
		<path fill="#FFF6D3" d="M57.22,64.82c0,0,2.56-4.81,3.99-5.42c1.43-0.6,5.94-1.28,7.37,1.88c0,0,1.43,5.19-5.11,6.24
			C63.46,67.53,64.36,63.32,57.22,64.82z"/>
		
			<path fill="none" stroke="#B88957" stroke-width="0.25" stroke-linecap="round" stroke-linejoin="round" stroke-miterlimit="10" d="
			M57.22,64.82c0,0,2.56-4.81,3.99-5.42c1.43-0.6,5.94-1.28,7.37,1.88c0,0,1.43,5.19-5.11,6.24C63.46,67.53,64.36,63.32,57.22,64.82
			z"/>
		<circle fill="#B88957" cx="63.17" cy="59.61" r="0.35"/>
		<circle fill="#B88957" cx="66.38" cy="62.03" r="0.35"/>
		<circle fill="#B88957" cx="59.05" cy="63.72" r="0.35"/>
		<circle fill="#B88957" cx="62.9" cy="62.6" r="0.35"/>
		
			<path fill="none" stroke="#B88957" stroke-width="0.25" stroke-linecap="round" stroke-linejoin="round" stroke-miterlimit="10" d="
			M59.94,60.57c0,0,6.79-1.67,8.71,2.65"/>
		
			<path fill="none" stroke="#B88957" stroke-width="0.25" stroke-linecap="round" stroke-linejoin="round" stroke-miterlimit="10" d="
			M59.05,61.78c0,0,8.55-1.02,8.62,3.69"/>
		
			<path fill="none" stroke="#B88957" stroke-width="0.25" stroke-linecap="round" stroke-linejoin="round" stroke-miterlimit="10" d="
			M58.13,63.23c0,0,8.14-1.38,7.18,3.83"/>
	</g>
</g>
</svg>
