<?xml version="1.0" encoding="utf-8"?>
<!-- Generator: Adobe Illustrator 24.0.1, SVG Export Plug-In . SVG Version: 6.00 Build 0)  -->
<svg version="1.1" id="Layer_1" xmlns="http://www.w3.org/2000/svg" xmlns:xlink="http://www.w3.org/1999/xlink" x="0px" y="0px"
	 viewBox="0 0 128 128" enable-background="new 0 0 128 128" xml:space="preserve">
<path fill="#AF002A" d="M118.14,106.66c0,0-64.23-0.03-68.7,0.02c-5.38,0.06-9.57-2.67-9.62-8.52c-0.05-6.16,5.06-8.73,9.62-8.73
	c5.49,0,68.26,0,68.26,0L118.14,106.66z"/>
<rect x="39.83" y="117.57" fill="#062594" width="37.43" height="6.34"/>
<path fill="none" stroke="#062594" stroke-miterlimit="10" d="M43.46,117.57v-0.29c0-1.59,1.29-2.88,2.88-2.88h24.4
	c1.59,0,2.88,1.29,2.88,2.88v0.29"/>
<circle fill="none" stroke="#AF002A" stroke-width="2" stroke-linecap="round" stroke-linejoin="round" stroke-miterlimit="10" cx="77.64" cy="41.94" r="12.86"/>
<line fill="none" stroke="#AF002A" stroke-width="2" stroke-linecap="round" stroke-linejoin="round" stroke-miterlimit="10" x1="77.64" y1="54.79" x2="77.64" y2="70.13"/>
<line fill="none" stroke="#AF002A" stroke-width="2" stroke-linecap="round" stroke-linejoin="round" stroke-miterlimit="10" x1="72.04" y1="63.58" x2="82.31" y2="63.58"/>
<path fill="none" d="M117.08,89.44"/>
<line fill="none" stroke="#FFFFFF" stroke-miterlimit="10" x1="72.04" y1="95.6" x2="117.86" y2="95.6"/>
<line fill="none" stroke="#FFFFFF" stroke-miterlimit="10" x1="88" y1="101.45" x2="118.01" y2="101.45"/>
<path fill="none" stroke="#AF002A" stroke-miterlimit="10" d="M118.14,106.66c0,0-64.35-0.03-68.78,0.02
	c-5.33,0.06-9.49-2.67-9.54-8.52c-0.05-6.16,5.02-8.73,9.54-8.73c5.45,0,67.71,0,67.71,0V3.01c0,0-59.41-0.24-68.42,0
	s-8.83,6.16-8.83,10.9s0.05,85.17,0.05,85.17"/>
<path fill="none" stroke="#062594" stroke-miterlimit="10" d="M29.85,75.83l-7.74,19.83l-6.16,7.74c0,0-5.14,13.35-5.61,14.14
	c-0.47,0.79-0.79,2.45,0,3.4c0.79,0.95,4.03,2.53,5.14,2.61c1.11,0.08,2.53-0.08,3.24-1.42c0.71-1.34,6.32-14.85,6.32-14.85
	l0.79-9.56l7.98-19.99"/>
<rect x="21.6" y="55.13" transform="matrix(0.9265 0.3763 -0.3763 0.9265 27.683 -8.7805)" fill="#FFFFFF" stroke="#AF002A" stroke-width="0.5" stroke-linecap="round" stroke-linejoin="round" stroke-miterlimit="10" width="29.43" height="22.67"/>
<path fill="#AF002A" d="M58.82,60.6c0,0-10.32,24.97-10.56,25.6c-0.24,0.63-0.79,1.15-1.7,0s-1.26-2.77-0.88-3.69
	s8.53-21.01,8.53-21.01s1.05-1.61,3.09-1.91C58.45,59.43,59.12,59.77,58.82,60.6z"/>
<path fill="#AF002A" d="M24.33,46.51c0,0-10.06,25.07-10.33,25.69c-0.27,0.62-0.24,1.37,1.22,1.19s2.83-1.1,3.21-2.03
	S27,50.37,27,50.37s0.38-1.88-0.88-3.52C25.42,45.92,24.69,45.7,24.33,46.51z"/>
<line fill="none" stroke="#AF002A" stroke-miterlimit="10" x1="31.15" y1="52.13" x2="22.96" y2="73.28"/>
<line fill="none" stroke="#AF002A" stroke-miterlimit="10" x1="49.42" y1="59.55" x2="41.23" y2="80.7"/>
</svg>
